<svg id="Agrupar_4_copiar" data-name="Agrupar 4 copiar" xmlns="http://www.w3.org/2000/svg" width="400" height="400" viewBox="0 0 2000 2000">
  <defs>
    <style>
      .cls-1 {
        fill: red;
        fill-rule: evenodd;
      }
    </style>
  </defs>
  <g id="Agrupar_3_copiar_2" data-name="Agrupar 3 copiar 2">
    <g id="LOGO">
      <path id="g_copiar_2" data-name="g copiar 2" class="cls-1" d="M1570.43,434.6q-56.7-178.674-206.18-277.481-149.475-98.781-352.22-98.794-171.825,0-311.843,78.175-140.055,78.2-219.924,218.206-79.893,140.057-79.893,317,0,176.984,79.893,316.14C379.714,812.7,1012.11,1941.64,1012.11,1941.64s458.89-833.2,493.16-889.3,78.32-152.68,94.37-236.306V606.419H950.178V790.262H1362.54q-27.51,130.593-115.12,203.6-87.63,73.045-225.08,73.017-111.705,0-195.869-48.1-84.2-48.087-131.439-137.456-47.276-89.317-47.248-209.615,0-116.82,46.39-206.178,46.389-89.318,128.861-137.453,82.471-48.081,189-48.108,96.21,0,168.38,39.518,72.165,39.545,113.4,115.116h276.62Z"/>
    </g>
  </g>
</svg>
